<svg xmlns="http://www.w3.org/2000/svg" viewBox="0 0 900 600" role="img" aria-label="Marble & Metal Detail">
  <defs>
    <linearGradient id="g" x1="0" y1="0" x2="1" y2="1">
      <stop offset="0" stop-color="#f8f3ec"/>
      <stop offset="1" stop-color="#ffffff"/>
    </linearGradient>
    <filter id="shadow" x="-20%" y="-20%" width="140%" height="140%">
      <feDropShadow dx="0" dy="18" stdDeviation="18" flood-color="#2d3442" flood-opacity="0.13"/>
    </filter>
  </defs>
  <rect width="900" height="600" rx="0" fill="url(#g)"/>
  <circle cx="760" cy="95" r="120" fill="#b48a4a" opacity="0.08"/>
  <circle cx="125" cy="500" r="140" fill="#2d3442" opacity="0.05"/>
  <g filter="url(#shadow)"><rect x="140" y="245" width="620" height="170" rx="18" fill="#fff" stroke="#d8c8b7"/><rect x="170" y="270" width="560" height="90" rx="14" fill="#b48a4a" opacity="0.18"/><rect x="210" y="315" width="230" height="20" rx="10" fill="#b48a4a" opacity="0.9"/><rect x="490" y="315" width="160" height="20" rx="10" fill="#2d3442" opacity="0.75"/><rect x="190" y="385" width="100" height="14" rx="7" fill="#c7b49f"/><rect x="610" y="385" width="90" height="14" rx="7" fill="#c7b49f"/><path d="M180 290 C260 260, 300 340, 380 310 S560 250, 710 305" stroke="#c7b49f" stroke-width="8" fill="none" opacity="0.6"/><path d="M180 345 C320 300, 450 390, 710 330" stroke="#bfa36d" stroke-width="5" fill="none" opacity="0.5"/></g>
  <text x="64" y="78" font-family="Arial, Helvetica, sans-serif" font-size="38" font-weight="700" fill="#222831">Marble & Metal Detail</text>
  <text x="66" y="118" font-family="Arial, Helvetica, sans-serif" font-size="20" fill="#637083">Decorative trim and surface finish</text>
</svg>